<?xml version="1.0" standalone="no"?>
<!DOCTYPE svg PUBLIC "-//W3C//DTD SVG 20010904//EN"
 "http://www.w3.org/TR/2001/REC-SVG-20010904/DTD/svg10.dtd">
<svg version="1.0" xmlns="http://www.w3.org/2000/svg"
 width="250.000000pt" height="250.000000pt" viewBox="0 0 250.000000 250.000000"
 preserveAspectRatio="xMidYMid meet">

<g transform="translate(0.000000,250.000000) scale(0.100000,-0.100000)"
fill="#000000" stroke="none">
<path d="M1140 2294 c-113 -14 -286 -66 -383 -116 -199 -101 -383 -293 -472
-493 -92 -208 -118 -482 -65 -690 96 -374 404 -677 775 -761 117 -27 333 -25
437 4 72 19 254 99 246 107 -2 2 -35 -6 -73 -17 -98 -30 -357 -32 -460 -4
-348 93 -615 365 -691 704 -24 107 -16 312 16 406 42 124 132 252 243 346 136
116 278 170 463 178 141 5 246 -12 364 -60 80 -33 166 -84 189 -111 7 -10 20
-17 27 -17 8 0 14 -3 14 -7 0 -5 16 -25 35 -46 54 -59 121 -177 134 -235 19
-90 26 -85 -101 -77 -332 20 -612 -114 -784 -377 -38 -57 -84 -148 -84 -165 0
-3 22 15 49 39 64 58 152 104 248 129 68 19 121 22 398 29 374 9 426 18 511
86 25 20 53 58 75 100 32 64 34 74 34 163 0 109 -20 194 -65 282 -35 70 -52
99 -65 116 -5 7 -26 33 -45 59 -63 85 -164 180 -255 241 -126 84 -254 140
-388 167 -80 17 -263 28 -327 20z"/>
</g>
</svg>
